<svg width="80" height="80" viewBox="0 0 80 80" fill="none" xmlns="http://www.w3.org/2000/svg">
<path d="M23.3333 60C19.6666 60 16.6999 63 16.6999 66.6667C16.6999 70.3333 19.6666 73.3333 23.3333 73.3333C26.9999 73.3333 29.9999 70.3333 29.9999 66.6667C29.9999 63 26.9999 60 23.3333 60ZM3.33325 6.66667V13.3333H9.99992L21.9999 38.6333L17.4999 46.8C16.9666 47.7333 16.6666 48.8333 16.6666 50C16.6666 53.6667 19.6666 56.6667 23.3333 56.6667H63.3333V50H24.7333C24.2666 50 23.8999 49.6333 23.8999 49.1667L23.9999 48.7667L26.9999 43.3333H51.8333C54.3333 43.3333 56.5332 41.9667 57.6666 39.9L69.5999 18.2667C69.8666 17.8 69.9999 17.2333 69.9999 16.6667C69.9999 14.8333 68.4999 13.3333 66.6666 13.3333H17.3666L14.2333 6.66667H3.33325ZM56.6666 60C52.9999 60 50.0333 63 50.0333 66.6667C50.0333 70.3333 52.9999 73.3333 56.6666 73.3333C60.3333 73.3333 63.3333 70.3333 63.3333 66.6667C63.3333 63 60.3333 60 56.6666 60Z" fill="#F5F5F5"/>
</svg>
